<?xml version="1.0" standalone="no"?>
<!DOCTYPE svg PUBLIC "-//W3C//DTD SVG 20010904//EN"
 "http://www.w3.org/TR/2001/REC-SVG-20010904/DTD/svg10.dtd">
<svg version="1.0" xmlns="http://www.w3.org/2000/svg"
 width="963.000000pt" height="351.000000pt" viewBox="0 0 963.000000 351.000000"
 preserveAspectRatio="xMidYMid meet">

<g transform="translate(0.000000,351.000000) scale(0.100000,-0.100000)"
fill="#000000" stroke="none">
<path d="M8550 2629 c-364 -44 -609 -287 -696 -689 -26 -120 -26 -429 -1 -548
87 -398 317 -635 669 -692 110 -18 331 -8 433 19 298 79 496 274 544 534 l8
47 -302 0 -302 0 -7 -38 c-3 -21 -19 -57 -35 -79 -39 -54 -90 -77 -172 -77
-57 0 -74 4 -115 30 -84 51 -144 186 -144 323 l0 51 535 0 535 0 0 174 c0 195
-14 291 -61 420 -75 206 -224 370 -413 456 -132 60 -324 88 -476 69z m175
-410 c26 -7 57 -28 87 -60 54 -55 86 -142 90 -244 l3 -60 -237 -3 -238 -2 0
44 c0 107 40 216 102 278 53 53 115 68 193 47z"/>
<path d="M1050 2624 c-101 -20 -209 -68 -262 -118 -15 -14 -29 -26 -31 -26 -3
0 -11 29 -18 65 l-13 65 -294 0 -294 0 6 -27 c17 -79 26 -465 26 -1136 l0
-749 217 4 c233 4 267 10 321 61 59 54 57 32 62 657 5 567 5 576 28 631 34 85
99 139 167 139 55 0 101 -24 134 -71 66 -91 65 -78 69 -782 l3 -639 217 4
c232 4 266 10 320 61 59 54 57 32 62 662 5 516 7 585 22 623 71 179 271 191
342 22 31 -74 36 -190 36 -781 l0 -589 198 0 c108 0 217 5 242 11 65 15 118
53 141 102 18 40 19 74 19 612 0 351 -4 595 -11 635 -44 272 -220 473 -476
541 -115 31 -293 32 -390 1 -81 -25 -202 -102 -257 -162 -20 -22 -39 -40 -43
-40 -5 0 -17 14 -28 31 -44 67 -168 145 -276 175 -58 15 -198 26 -239 18z"/>
</g>
</svg>
